<svg width="512" height="512" viewBox="0 0 512 512" xmlns="http://www.w3.org/2000/svg">
  <rect x="0" y="0" width="512" height="512" rx="112" ry="112" fill="#DE7356"/>
  <path d="M200.535-58.435Q200.535-46.835 194.517-35.453Q188.500-24.070 177.190-14.717Q165.880-5.365 149.930 0.217Q133.980 5.800 114.115 5.800Q81.635 5.800 58-7.757Q34.365-21.315 21.460-45.312Q8.555-69.310 8.555-100.485Q8.555-123.830 16.240-143.550Q23.925-163.270 37.773-177.915Q51.620-192.560 70.108-200.680Q88.595-208.800 110.055-208.800Q123.540-208.800 131.950-206.480Q140.360-204.160 145.435-201.695Q150.510-199.230 153.990-199.230Q158.195-199.230 160.950-201.550Q163.705-203.870 166.532-206.045Q169.360-208.220 173.710-208.220Q177.190-208.220 179.510-205.900Q181.830-203.580 183.425-198.215L198.360-146.595Q199.665-142.100 197.272-138.620Q194.880-135.140 190.530-133.980Q185.745-132.965 181.757-134.705Q177.770-136.445 175.595-141.520Q168.200-159.065 159.282-168.780Q150.365-178.495 140.722-182.410Q131.080-186.325 121.075-186.325Q110.490-186.325 102.152-181.250Q93.815-176.175 88.015-166.532Q82.215-156.890 79.097-143.332Q75.980-129.775 75.980-112.665Q75.980-84.825 83.375-66.265Q90.770-47.705 103.965-38.425Q117.160-29.145 134.415-29.145Q149.495-29.145 162.182-37.047Q174.870-44.950 182.990-60.175Q185.455-64.815 188.282-66.192Q191.110-67.570 194.445-66.990Q197.780-66.410 199.157-64.162Q200.535-61.915 200.535-58.435" fill="#FAF9F5" transform="translate(106.433 372.860)"/>
  <path d="M256.070 4.350Q246.500 4.350 238.743-0.507Q230.985-5.365 226.417-13.485Q221.850-21.605 221.850-30.885Q221.850-40.600 226.417-48.502Q230.985-56.405 238.743-61.117Q246.500-65.830 256.070-65.830Q265.930-65.830 273.688-61.117Q281.445-56.405 286.012-48.502Q290.580-40.600 290.580-30.885Q290.580-21.605 286.012-13.485Q281.445-5.365 273.688-0.507Q265.930 4.350 256.070 4.350" fill="#2B2A28" transform="translate(106.433 372.860)"/>
</svg>
